<?xml version="1.0" encoding="utf-8"?>
<!-- Generator: Adobe Illustrator 24.2.3, SVG Export Plug-In . SVG Version: 6.00 Build 0)  -->
<svg version="1.1" id="Layer_1" xmlns="http://www.w3.org/2000/svg" xmlns:xlink="http://www.w3.org/1999/xlink" x="0px" y="0px"
	 viewBox="0 0 90.9 28" style="enable-background:new 0 0 90.9 28;" xml:space="preserve">
<style type="text/css">
	.st0{clip-path:url(#SVGID_2_);}
	.st1{fill:#373737;}
	.st2{fill:#FF651C;}
	.st3{font-family:'Impacted';}
	.st4{font-size:28.4787px;}
	.st5{fill:#F4F4F4;}
	.st6{fill:#1F2C33;}
	.st7{fill:#E5E5E5;}
	.st8{fill:#F3F4F4;}
	.st9{fill:#0A2027;}
	.st10{fill:#141C25;}
	.st11{fill:#1D2B32;}
	.st12{fill:#012831;}
	.st13{fill:#F4F3F3;}
	.st14{fill:#203640;}
	.st15{fill:#24363F;}
	.st16{fill:#FCD065;}
	.st17{fill:#DCD9DA;}
</style>
<g>
	<defs>
		<rect id="SVGID_1_" x="-58.3" y="-34.2" width="151" height="28"/>
	</defs>
	<clipPath id="SVGID_2_">
		<use xlink:href="#SVGID_1_"  style="overflow:visible;"/>
	</clipPath>
	<g class="st0">
		<path class="st1" d="M-20.6-12.3h13.3l-0.4-4.6h-12.5L-20.6-12.3z M-14-23.3l3.6,8.2l-0.2,1.5l3,6.2h6.9L-14-34.2L-27.3-7.4h6.9
			l3.1-6.5l-0.3-1.3L-14-23.3z"/>
		<path class="st1" d="M20.4-32.6v14.2L3-33.9v26.5h5.8v-14.2L26.2-6.1v-26.5H20.4z"/>
		<path class="st1" d="M50-32.6v14.2L32.7-33.9v26.5h5.8v-14.2L55.9-6.1v-26.5H50z"/>
		<path class="st1" d="M62.3-32.6v25.2h6.2v-25.2H62.3z"/>
		<path class="st1" d="M79-7.4h12.7v-5H79V-7.4z M79-27.6h12.7v-5H79V-27.6z M79-18.2h12v-4.9H79V-18.2z M74.9-32.6v25.2h5.8v-25.2
			H74.9z"/>
		<path class="st2" d="M-44.1-14.5c0,0.2,0.1,0.3,0.3,0.3h6.5c0.1,0,0.3-0.1,0.3-0.3v-1.7c0-0.2-0.1-0.3-0.3-0.3h-6.5
			c-0.1,0-0.3,0.1-0.3,0.3V-14.5z M-50.9-14.3l6.7-5.6c0.1-0.1,0.1-0.3,0-0.4l-6.7-5.6c0,0-0.1-0.1-0.1-0.1c-0.1,0-0.1,0-0.2,0
			c0,0-0.1,0.1-0.1,0.1c0,0,0,0.1,0,0.2v2.2c0,0.1,0,0.2,0.1,0.2l3.8,3.2l-3.8,3.2c0,0-0.1,0.1-0.1,0.1c0,0,0,0.1,0,0.1v2.2
			C-51.4-14.3-51.1-14.2-50.9-14.3z M-31.4-34.2h-25.8c-0.6,0-1.1,0.5-1.1,1.1v25.8c0,0.6,0.5,1.1,1.1,1.1h25.8
			c0.6,0,1.1-0.5,1.1-1.1v-25.8C-30.3-33.7-30.8-34.2-31.4-34.2z M-32.8-8.7h-23v-23h23V-8.7z"/>
	</g>
</g>
<text transform="matrix(1.0956 0 0 1 4.4929 25.0406)" class="st1 st3 st4">VINEET</text>
<g>
	<path class="st5" d="M-20.5,52.3c-3.2,0-6.4,0-9.6,0c-1.2,0-1.4-0.2-1.4-1.4c0-2,0-2,1.9-2c8.8,0,17.6,0,26.4,0
		c0.9,0,1.3,0.2,1.3,1.2c-0.1,2.1,0,2.1-2.2,2.1c-2.9,0-5.9,0-8.8,0c-0.3,0.3-0.7,0.4-1.2,0.4c-1.8,0-3.6,0-5.4,0
		C-19.8,52.7-20.2,52.6-20.5,52.3z"/>
	<path class="st6" d="M-2,33.3c0,0.1,0.1,0.2,0.1,0.3c0,4.9,0,9.9,0,14.8c-0.2,0.4-0.6,0.3-0.9,0.3c-9.3,0-18.5,0-27.8,0
		c-0.3,0-0.7,0.1-0.9-0.3c0-4.9,0-9.9,0-14.8c0-0.1,0.1-0.2,0.1-0.3c0.3-0.1,0.6-0.1,0.9-0.1c9.2,0,18.4,0,27.7,0
		C-2.6,33.2-2.3,33.1-2,33.3z"/>
	<path class="st7" d="M-20.5,52.3c2.6,0,5.1,0,7.7,0c0,0.9,0,1.8,0,2.7c-0.3,0.4-0.7,0.4-1.1,0.4c-1.8,0-3.6,0-5.4,0
		c-0.4,0-0.9,0-1.1-0.4C-20.5,54.1-20.5,53.2-20.5,52.3z"/>
	<path class="st8" d="M-20.5,55c2.6,0,5.1,0,7.7,0c0.5,0,1,0,1.6,0c0.4,0,0.8,0.3,0.8,0.7c0,0.5-0.4,0.6-0.8,0.6
		c-3.6,0-7.1,0-10.7,0c-0.4,0-0.8-0.1-0.8-0.6c0-0.5,0.4-0.7,0.8-0.7C-21.5,55-21,55-20.5,55z"/>
	<path class="st9" d="M-31.5,48.4c0.4,0.2,0.8,0.2,1.2,0.2c9,0,18,0,27.1,0c0.4,0,0.9,0,1.2-0.2c0,0.2,0.1,0.4-0.2,0.4
		c-0.3,0-0.5,0-0.8,0c-9.2,0-18.4,0-27.6,0C-30.8,48.8-31.4,49.1-31.5,48.4z"/>
	<path class="st10" d="M-2,33.3c-9.8,0-19.6,0-29.4,0c0.3-0.3,0.7-0.2,1-0.2c9.1,0,18.3,0,27.4,0C-2.7,33.1-2.3,32.9-2,33.3z"/>
	<path class="st11" d="M-16,50.3c-0.1,0.4-0.3,0.6-0.7,0.6c-0.4,0-0.7-0.3-0.6-0.7c0-0.4,0.3-0.7,0.7-0.6
		C-16.3,49.6-16,49.8-16,50.3z"/>
	<path class="st2" d="M-30.1,47.5c0-4.1,0-8.2,0-12.2c0-0.7,0.2-0.9,0.9-0.9c8.4,0,16.8,0,25.1,0c0.7,0,0.9,0.2,0.9,0.9
		c0,4.1,0,8.2,0,12.2c-0.2,0.3-0.5,0.2-0.8,0.2c-8.4,0-16.8,0-25.2,0C-29.6,47.7-29.9,47.8-30.1,47.5z"/>
	<path class="st12" d="M-30.1,47.5c8.9,0,17.9,0,26.8,0c-0.3,0.4-0.6,0.3-1,0.3c-8.3,0-16.6,0-24.8,0
		C-29.5,47.8-29.9,47.9-30.1,47.5z"/>
	<path class="st13" d="M-27.7,40.5c0,1.7,0,3.5,0,5.2c0,0.5-0.1,0.7-0.7,0.8c-0.6,0-0.7-0.3-0.7-0.8c0-3.4,0-6.8,0-10.3
		c0-0.6,0.3-0.7,0.8-0.7c0.5,0,0.6,0.3,0.6,0.7C-27.7,37.1-27.7,38.8-27.7,40.5z"/>
	<path class="st14" d="M-23.7,37.4c1-0.1,1.9,0.2,2.7,0.6c1.2,0.7,2.1,1.7,3.1,2.7c0.7,0.8,1.4,1.5,2.2,2.2c0.8,0.8,1.8,1.2,2.9,1.4
		c-1.1,0.3-2.1-0.1-2.9-0.7c-1-0.7-1.8-1.6-2.6-2.5C-20,39.6-21.4,37.9-23.7,37.4z"/>
	<path class="st15" d="M-10.2,41.7c0.6-1,1.6-1.5,2.9-2.1c-0.5,1.3-1.1,2.2-2,2.9C-9.9,42.6-10.2,42.3-10.2,41.7z"/>
	<path class="st16" d="M-10.1,43c-0.1,0.6-0.5,1-1.1,1c-0.2,0-0.5,0-0.4-0.3c0.1-0.5,0.2-1.2,0.9-1.3C-10.3,42.4-10.1,42.6-10.1,43z
		"/>
	<path class="st17" d="M-10.1,43c-0.2-0.2-0.4-0.4-0.6-0.5c0.1-0.3,0.2-0.6,0.5-0.8c0.3,0.3,0.6,0.6,0.8,0.8
		C-9.6,42.8-9.8,42.9-10.1,43z"/>
</g>
</svg>
